<?xml version="1.0" encoding="utf-8"?>
<!-- Svg Vector Icons : http://www.onlinewebfonts.com/icon -->
<!DOCTYPE svg PUBLIC "-//W3C//DTD SVG 1.1//EN" "http://www.w3.org/Graphics/SVG/1.1/DTD/svg11.dtd">
<svg version="1.1" xmlns="http://www.w3.org/2000/svg" xmlns:xlink="http://www.w3.org/1999/xlink" x="0px" y="0px" viewBox="0 0 256 256" enable-background="new 0 0 256 256" xml:space="preserve">
<metadata> Svg Vector Icons : http://www.onlinewebfonts.com/icon </metadata>
<g><g><g><path fill="#000000" d="M123.5,11.1c-1.3,0.7-3.1,2.2-4,3.3l-1.7,2.1l-0.2,14.7l-0.2,14.7l-5.6-5.5c-3.1-3-6.5-5.9-7.6-6.3c-4-1.7-9.1-0.6-12.1,2.6c-2.6,2.8-3.6,7.7-2.3,11.1c0.3,0.8,6.7,7.7,14.1,15.1l13.5,13.6v16.4c0,9-0.1,16.4-0.2,16.4c-0.3,0-27.6-15.7-28.2-16.2c-0.2-0.2-2.2-7.2-4.5-15.6c-2.2-8.3-4.4-16.4-4.8-18c-2.5-8.6-11.8-11.4-18-5.3c-1.6,1.6-2.4,3-2.9,4.9c-0.6,2.4-0.5,3.3,1.3,10.2c1.1,4.1,1.8,7.6,1.7,7.8c-0.2,0.1-5.4-2.7-11.7-6.3c-7.5-4.4-12.2-6.7-13.6-6.9c-4.5-0.6-9.1,1.8-11.2,6c-1.9,3.6-0.5,10.3,2.7,12.7c0.7,0.5,6.2,3.8,12.2,7.2c6,3.4,11,6.4,11,6.5c0,0.2-3.1,1.1-7,2.1c-7.9,2-9.6,2.9-11.8,5.8c-1.2,1.6-1.6,2.8-1.7,5.4c-0.4,5.8,2.7,9.9,8.4,11.1c2.6,0.6,3.6,0.4,20.8-4.3l18.2-4.8l13.8,7.9c7.5,4.4,13.8,8.2,13.8,8.5c0,0.3-6.2,4.1-13.8,8.5l-13.8,8L60,139.6c-17.3-4.7-18.3-4.9-20.8-4.3c-5.6,1.2-8.7,5.4-8.4,11.1c0.2,2.7,0.5,3.8,1.7,5.4c2.2,2.9,3.9,3.7,11.8,5.8c3.9,1,7,2,7,2.1c0,0.2-4.9,3.1-11,6.5c-12.8,7.3-13.1,7.6-14.6,10.4c-3.5,6.7,0.9,14.9,8.4,15.5c3.6,0.3,4.3,0,17.1-7.4c5.8-3.4,10.6-6,10.7-5.9c0.2,0.2-0.6,3.6-1.7,7.8c-1.8,6.9-1.9,7.8-1.3,10.2c0.9,3.6,4.2,6.9,7.7,7.8c4.2,1.1,7.8-0.1,10.6-3.4c2-2.3,1.8-1.7,7.2-21.7c2.4-8.9,4.6-16.4,4.8-16.6c0.5-0.5,27.8-16.3,28.2-16.3c0.1,0,0.2,7.4,0.2,16.4v16.4L104,193.2c-7.5,7.4-13.8,14.3-14.1,15.1c-1.3,3.5-0.3,8.4,2.3,11.1c2.9,3.1,8.1,4.2,12.1,2.6c1.1-0.4,4.5-3.3,7.6-6.3l5.6-5.5l0.2,14.7l0.2,14.7l1.7,2.1c5.2,6.5,14.4,5.7,18.2-1.6c0.9-1.8,1-3.3,1-16v-14l5.6,5.5c6,5.9,8.1,7.2,12.1,7.2c7.6,0,12.8-8.1,9.6-14.9c-0.7-1.4-5.8-6.9-14.1-15.2l-13.1-13v-16.4c0-9.1,0.1-16.4,0.2-16.4c0.3,0,27.6,15.7,28.1,16.2c0.2,0.2,2.5,8.1,5,17.6c2.5,9.5,5.2,18.3,5.9,19.4c1.2,2.3,4.4,4.5,7.3,5c4.9,0.9,10.9-3.1,11.9-8c0.6-2.8,0.4-4.2-1.8-12.2c-0.8-3.1-1.4-5.7-1.2-5.9c0.2-0.2,5,2.4,10.7,5.8c5.8,3.4,11.3,6.4,12.3,6.8c4.9,2.1,11.8-0.9,13.7-6c0.9-2.4,0.7-6.7-0.5-9.1c-1.3-2.6-2.8-3.5-15.6-10.9c-5.5-3.1-9.9-5.8-9.9-5.9c0-0.2,2.8-1,6.1-1.8c3.3-0.9,6.9-1.9,8-2.3c4-1.6,6.5-5.4,6.5-9.9c0-5.2-3.3-9.2-8.5-10.3c-2.6-0.6-3.5-0.4-20.8,4.3l-18.2,4.9l-14.1-8.2c-7.8-4.4-14.2-8.2-14.3-8.2c-0.1-0.1,6.3-3.8,14.1-8.3l14.3-8.3l18.1,4.9c17.3,4.7,18.3,4.9,20.8,4.3c5.2-1.1,8.5-5.1,8.5-10.3c0-4.5-2.5-8.3-6.5-9.9c-1-0.4-4.7-1.5-8-2.3c-3.4-0.9-6.1-1.7-6.1-1.8c0-0.2,4.5-2.8,9.9-5.9c12.8-7.4,14.3-8.4,15.6-10.9c1.2-2.3,1.4-6.6,0.5-9.1c-1.5-4-6.2-6.9-10.6-6.6c-2.4,0.2-4.5,1.2-14.3,6.9c-6.4,3.6-11.7,6.5-11.8,6.4c-0.2-0.2,0.4-2.8,1.2-5.9c2.2-8,2.4-9.4,1.8-12.2c-1.1-4.9-7-8.9-11.9-7.9c-3.6,0.7-7,3.2-8.1,6.1c-0.4,1.2-9.7,35-9.7,35.6c0,0.2-27.3,16-28.3,16.4c-0.2,0.1-0.4-7.2-0.4-16.3V76.5l13.1-13c8.3-8.3,13.5-13.8,14.1-15.2c3.2-6.8-2-14.9-9.6-14.9c-3.9,0-6,1.2-12,7.2l-5.6,5.5V32c0-12.7-0.1-14.2-1-16C134.8,10.6,128.8,8.5,123.5,11.1z"/></g></g></g>
</svg>